<mxfile host="app.diagrams.net" agent="Mozilla/5.0 (Windows NT 10.0; Win64; x64) AppleWebKit/537.36 (KHTML, like Gecko) Chrome/131.0.0.0 Safari/537.36" version="26.0.15">
  <diagram name="Page-1" id="Xi-BZhb9LeK9VdKc3ljJ">
    <mxGraphModel dx="1477" dy="637" grid="1" gridSize="10" guides="1" tooltips="1" connect="1" arrows="1" fold="1" page="1" pageScale="1" pageWidth="850" pageHeight="1100" math="0" shadow="0">
      <root>
        <mxCell id="0" />
        <mxCell id="1" parent="0" />
        <mxCell id="LOgF8pGOpkO5d58ZwFKn-1" value="VPC" style="sketch=0;outlineConnect=0;gradientColor=none;html=1;whiteSpace=wrap;fontSize=12;fontStyle=0;shape=mxgraph.aws4.group;grIcon=mxgraph.aws4.group_vpc;strokeColor=#879196;fillColor=none;verticalAlign=top;align=left;spacingLeft=30;fontColor=#879196;dashed=0;" parent="1" vertex="1">
          <mxGeometry x="116.12" y="220" width="634.75" height="300" as="geometry" />
        </mxCell>
        <mxCell id="LOgF8pGOpkO5d58ZwFKn-3" value="Subnet" style="sketch=0;outlineConnect=0;gradientColor=none;html=1;whiteSpace=wrap;fontSize=12;fontStyle=0;shape=mxgraph.aws4.group;grIcon=mxgraph.aws4.group_subnet;strokeColor=#879196;fillColor=none;verticalAlign=top;align=left;spacingLeft=30;fontColor=#879196;dashed=0;" parent="1" vertex="1">
          <mxGeometry x="375" y="290" width="120" height="160" as="geometry" />
        </mxCell>
        <mxCell id="LOgF8pGOpkO5d58ZwFKn-4" value="Subnet" style="sketch=0;outlineConnect=0;gradientColor=none;html=1;whiteSpace=wrap;fontSize=12;fontStyle=0;shape=mxgraph.aws4.group;grIcon=mxgraph.aws4.group_subnet;strokeColor=#879196;fillColor=none;verticalAlign=top;align=left;spacingLeft=30;fontColor=#879196;dashed=0;" parent="1" vertex="1">
          <mxGeometry x="575" y="290" width="130" height="160" as="geometry" />
        </mxCell>
        <mxCell id="LOgF8pGOpkO5d58ZwFKn-5" value="pub&amp;nbsp;" style="sketch=0;outlineConnect=0;gradientColor=none;html=1;whiteSpace=wrap;fontSize=12;fontStyle=0;shape=mxgraph.aws4.group;grIcon=mxgraph.aws4.group_subnet;strokeColor=#879196;fillColor=none;verticalAlign=top;align=left;spacingLeft=30;fontColor=#879196;dashed=0;" parent="1" vertex="1">
          <mxGeometry x="151.75" y="290" width="133.25" height="160" as="geometry" />
        </mxCell>
        <mxCell id="LOgF8pGOpkO5d58ZwFKn-7" value="ec2&lt;div&gt;&lt;br&gt;&lt;/div&gt;" style="outlineConnect=0;dashed=0;verticalLabelPosition=bottom;verticalAlign=top;align=center;html=1;shape=mxgraph.aws3.ec2;fillColor=#F58534;gradientColor=none;" parent="1" vertex="1">
          <mxGeometry x="188.5" y="343.5" width="56.5" height="66.5" as="geometry" />
        </mxCell>
        <mxCell id="LOgF8pGOpkO5d58ZwFKn-8" value="ec2&lt;div&gt;&lt;br&gt;&lt;/div&gt;" style="outlineConnect=0;dashed=0;verticalLabelPosition=bottom;verticalAlign=top;align=center;html=1;shape=mxgraph.aws3.ec2;fillColor=#F58534;gradientColor=none;" parent="1" vertex="1">
          <mxGeometry x="402" y="350" width="63" height="60" as="geometry" />
        </mxCell>
        <mxCell id="LOgF8pGOpkO5d58ZwFKn-20" value="aws vpc 192.168.0.0/16" style="text;html=1;align=center;verticalAlign=middle;whiteSpace=wrap;rounded=0;" parent="1" vertex="1">
          <mxGeometry x="350" y="520" width="130" height="30" as="geometry" />
        </mxCell>
        <mxCell id="LOgF8pGOpkO5d58ZwFKn-22" value="pub sub 192.168.1.1/24" style="text;html=1;align=center;verticalAlign=middle;whiteSpace=wrap;rounded=0;" parent="1" vertex="1">
          <mxGeometry x="151.5" y="450" width="110" height="30" as="geometry" />
        </mxCell>
        <mxCell id="LOgF8pGOpkO5d58ZwFKn-23" value="pri sub 192.168.2.1/24" style="text;html=1;align=center;verticalAlign=middle;whiteSpace=wrap;rounded=0;" parent="1" vertex="1">
          <mxGeometry x="375" y="450" width="110" height="30" as="geometry" />
        </mxCell>
        <mxCell id="LOgF8pGOpkO5d58ZwFKn-25" value="RDS sub 192.168.3.1/24" style="text;html=1;align=center;verticalAlign=middle;whiteSpace=wrap;rounded=0;" parent="1" vertex="1">
          <mxGeometry x="575" y="450" width="110" height="30" as="geometry" />
        </mxCell>
        <mxCell id="LOgF8pGOpkO5d58ZwFKn-28" value="RDS&lt;div&gt;EC2&lt;/div&gt;" style="sketch=0;points=[[0,0,0],[0.25,0,0],[0.5,0,0],[0.75,0,0],[1,0,0],[0,1,0],[0.25,1,0],[0.5,1,0],[0.75,1,0],[1,1,0],[0,0.25,0],[0,0.5,0],[0,0.75,0],[1,0.25,0],[1,0.5,0],[1,0.75,0]];outlineConnect=0;fontColor=#232F3E;fillColor=#C925D1;strokeColor=#ffffff;dashed=0;verticalLabelPosition=bottom;verticalAlign=top;align=center;html=1;fontSize=12;fontStyle=0;aspect=fixed;shape=mxgraph.aws4.resourceIcon;resIcon=mxgraph.aws4.rds;" parent="1" vertex="1">
          <mxGeometry x="615" y="350" width="40" height="40" as="geometry" />
        </mxCell>
        <mxCell id="LOgF8pGOpkO5d58ZwFKn-31" value="IGW" style="outlineConnect=0;dashed=0;verticalLabelPosition=bottom;verticalAlign=top;align=center;html=1;shape=mxgraph.aws3.internet_gateway;fillColor=#F58534;gradientColor=none;" parent="1" vertex="1">
          <mxGeometry x="219.25" y="200" width="42.25" height="40" as="geometry" />
        </mxCell>
        <mxCell id="LOgF8pGOpkO5d58ZwFKn-33" value="NAT" style="sketch=0;outlineConnect=0;fontColor=#232F3E;gradientColor=none;fillColor=#8C4FFF;strokeColor=none;dashed=0;verticalLabelPosition=bottom;verticalAlign=top;align=center;html=1;fontSize=12;fontStyle=0;aspect=fixed;pointerEvents=1;shape=mxgraph.aws4.nat_gateway;" parent="1" vertex="1">
          <mxGeometry x="255" y="390" width="50" height="50" as="geometry" />
        </mxCell>
        <mxCell id="LOgF8pGOpkO5d58ZwFKn-34" value="&lt;span style=&quot;color: rgba(0, 0, 0, 0); font-family: monospace; font-size: 0px; text-align: start; background-color: rgb(251, 251, 251);&quot;&gt;%3CmxGraphModel%3E%3Croot%3E%3CmxCell%20id%3D%220%22%2F%3E%3CmxCell%20id%3D%221%22%20parent%3D%220%22%2F%3E%3CmxCell%20id%3D%222%22%20value%3D%22%22%20style%3D%22endArrow%3Dclassic%3Bhtml%3D1%3Brounded%3D0%3B%22%20edge%3D%221%22%20parent%3D%221%22%3E%3CmxGeometry%20width%3D%2250%22%20height%3D%2250%22%20relative%3D%221%22%20as%3D%22geometry%22%3E%3CmxPoint%20x%3D%22315%22%20y%3D%22414.38%22%20as%3D%22sourcePoint%22%2F%3E%3CmxPoint%20x%3D%22375%22%20y%3D%22414.38%22%20as%3D%22targetPoint%22%2F%3E%3C%2FmxGeometry%3E%3C%2FmxCell%3E%3C%2Froot%3E%3C%2FmxGraphModel%3E&lt;/span&gt;" style="endArrow=classic;html=1;rounded=0;" parent="1" edge="1">
          <mxGeometry width="50" height="50" relative="1" as="geometry">
            <mxPoint x="315" y="414.38" as="sourcePoint" />
            <mxPoint x="375" y="414.38" as="targetPoint" />
          </mxGeometry>
        </mxCell>
        <mxCell id="LOgF8pGOpkO5d58ZwFKn-38" value="" style="edgeStyle=none;orthogonalLoop=1;jettySize=auto;html=1;rounded=0;" parent="1" source="LOgF8pGOpkO5d58ZwFKn-41" edge="1">
          <mxGeometry width="100" relative="1" as="geometry">
            <mxPoint x="239.75" y="250" as="sourcePoint" />
            <mxPoint x="239.75" y="290" as="targetPoint" />
            <Array as="points" />
          </mxGeometry>
        </mxCell>
        <mxCell id="LOgF8pGOpkO5d58ZwFKn-39" value="RT" style="outlineConnect=0;dashed=0;verticalLabelPosition=bottom;verticalAlign=top;align=center;html=1;shape=mxgraph.aws3.route_table;fillColor=#F58536;gradientColor=none;" parent="1" vertex="1">
          <mxGeometry x="402" y="240" width="40" height="30" as="geometry" />
        </mxCell>
        <mxCell id="LOgF8pGOpkO5d58ZwFKn-40" value="RT" style="outlineConnect=0;dashed=0;verticalLabelPosition=bottom;verticalAlign=top;align=center;html=1;shape=mxgraph.aws3.route_table;fillColor=#F58536;gradientColor=none;" parent="1" vertex="1">
          <mxGeometry x="615" y="230" width="40" height="30" as="geometry" />
        </mxCell>
        <mxCell id="LOgF8pGOpkO5d58ZwFKn-42" value="" style="edgeStyle=none;orthogonalLoop=1;jettySize=auto;html=1;rounded=0;" parent="1" target="LOgF8pGOpkO5d58ZwFKn-41" edge="1">
          <mxGeometry width="100" relative="1" as="geometry">
            <mxPoint x="239.75" y="250" as="sourcePoint" />
            <mxPoint x="239.75" y="290" as="targetPoint" />
            <Array as="points" />
          </mxGeometry>
        </mxCell>
        <mxCell id="LOgF8pGOpkO5d58ZwFKn-41" value="RT" style="outlineConnect=0;dashed=0;verticalLabelPosition=bottom;verticalAlign=top;align=center;html=1;shape=mxgraph.aws3.route_table;fillColor=#F58536;gradientColor=none;" parent="1" vertex="1">
          <mxGeometry x="221.5" y="270" width="40" height="30" as="geometry" />
        </mxCell>
        <mxCell id="LOgF8pGOpkO5d58ZwFKn-43" style="edgeStyle=none;rounded=0;orthogonalLoop=1;jettySize=auto;html=1;exitX=0.5;exitY=1;exitDx=0;exitDy=0;exitPerimeter=0;" parent="1" source="LOgF8pGOpkO5d58ZwFKn-40" target="LOgF8pGOpkO5d58ZwFKn-40" edge="1">
          <mxGeometry relative="1" as="geometry" />
        </mxCell>
        <mxCell id="LOgF8pGOpkO5d58ZwFKn-44" style="edgeStyle=none;rounded=0;orthogonalLoop=1;jettySize=auto;html=1;exitX=0.5;exitY=1;exitDx=0;exitDy=0;exitPerimeter=0;" parent="1" source="LOgF8pGOpkO5d58ZwFKn-40" target="LOgF8pGOpkO5d58ZwFKn-40" edge="1">
          <mxGeometry relative="1" as="geometry" />
        </mxCell>
        <mxCell id="LOgF8pGOpkO5d58ZwFKn-45" value="Git&lt;div&gt;&lt;br&gt;&lt;/div&gt;" style="verticalLabelPosition=bottom;html=1;verticalAlign=top;align=center;strokeColor=none;fillColor=#00BEF2;shape=mxgraph.azure.github_code;pointerEvents=1;" parent="1" vertex="1">
          <mxGeometry x="55.25" y="120" width="50" height="50" as="geometry" />
        </mxCell>
        <mxCell id="LOgF8pGOpkO5d58ZwFKn-50" value="" style="edgeStyle=segmentEdgeStyle;endArrow=classic;html=1;curved=0;rounded=0;endSize=8;startSize=8;sourcePerimeterSpacing=0;targetPerimeterSpacing=0;" parent="1" edge="1">
          <mxGeometry width="100" relative="1" as="geometry">
            <mxPoint x="96.5" y="120" as="sourcePoint" />
            <mxPoint x="196.5" y="160" as="targetPoint" />
            <Array as="points">
              <mxPoint x="146.5" y="160" />
            </Array>
          </mxGeometry>
        </mxCell>
        <mxCell id="LOgF8pGOpkO5d58ZwFKn-51" value="Security Group Rules&#xa;- EC2: 22,8080&#xa;- Backend: 80&#xa;- DB: 3306" style="shape=rectangle;fillColor=#F4F6F7;" parent="1" vertex="1">
          <mxGeometry x="615" y="100" width="180" height="100" as="geometry" />
        </mxCell>
        <mxCell id="LOgF8pGOpkO5d58ZwFKn-52" value="Jenkins CI/CD" style="sketch=0;outlineConnect=0;fontColor=#232F3E;gradientColor=none;fillColor=#7AA116;strokeColor=none;dashed=0;verticalLabelPosition=bottom;verticalAlign=top;align=center;html=1;fontSize=12;fontStyle=0;aspect=fixed;pointerEvents=1;shape=mxgraph.aws4.iot_analytics_pipeline;" parent="1" vertex="1">
          <mxGeometry x="207" y="120" width="78" height="42" as="geometry" />
        </mxCell>
        <mxCell id="LOgF8pGOpkO5d58ZwFKn-53" value="ECR" style="outlineConnect=0;dashed=0;verticalLabelPosition=bottom;verticalAlign=top;align=center;html=1;shape=mxgraph.aws3.ecr_registry;fillColor=#F58534;gradientColor=none;" parent="1" vertex="1">
          <mxGeometry x="368" y="120" width="52" height="50" as="geometry" />
        </mxCell>
        <mxCell id="LOgF8pGOpkO5d58ZwFKn-54" value="NAT" style="sketch=0;outlineConnect=0;fontColor=#232F3E;gradientColor=none;fillColor=#8C4FFF;strokeColor=none;dashed=0;verticalLabelPosition=bottom;verticalAlign=top;align=center;html=1;fontSize=12;fontStyle=0;aspect=fixed;pointerEvents=1;shape=mxgraph.aws4.nat_gateway;" parent="1" vertex="1">
          <mxGeometry x="470" y="390" width="50" height="50" as="geometry" />
        </mxCell>
        <mxCell id="LOgF8pGOpkO5d58ZwFKn-62" value="" style="endArrow=classic;html=1;rounded=0;" parent="1" edge="1">
          <mxGeometry width="50" height="50" relative="1" as="geometry">
            <mxPoint x="525" y="414.38" as="sourcePoint" />
            <mxPoint x="575" y="414.38" as="targetPoint" />
          </mxGeometry>
        </mxCell>
      </root>
    </mxGraphModel>
  </diagram>
</mxfile>
